M48
INCH
T01C0.0150
T02C0.0300
T03C0.1181
T04C0.0700
T05C0.1574
T06C0.0400
%
T01
X+025448Y+009827
X+026220Y+009881
X+018564Y+007008
X+020590Y+016023
X+014719Y+017076
X+010237Y+014979
X+013655Y+016819
X+006255Y+015210
X+004465Y+012942
X+032077Y+017508
X+028818Y+015944
X+033267Y+013622
X+037496Y+014251
X+033601Y+008572
X+023503Y+013385
X+030540Y+004269
X+026771Y+015039
X+020579Y+004509
X+030501Y-000133
X+022716Y+003385
X+032244Y+000511
X+024645Y+003523
X+039377Y+014145
X+023661Y+003425
X+037559Y+017401
X+015275Y+020669
X+042059Y+018591
X+035118Y+013425
X+035375Y+007952
X+018651Y+008113
X+009133Y+012974
T02
X+016887Y+018822
X+015807Y+018822
X+014727Y+018822
X+013647Y+018822
X+012567Y+018822
X+016347Y+019822
X+015267Y+019822
X+014187Y+019822
X+013107Y+019822
X+019606Y+005767
X+020606Y+005767
X+021606Y+005767
X+022606Y+005767
X+023606Y+005767
X+024606Y+005767
X+025606Y+005767
X+026606Y+005767
X+027606Y+005767
X+028606Y+005767
X+029606Y+005767
X+030606Y+005767
X+031606Y+005767
X+032606Y+005767
X+032606Y+008767
X+031606Y+008767
X+030606Y+008767
X+029606Y+008767
X+028606Y+008767
X+027606Y+008767
X+026606Y+008767
X+025606Y+008767
X+024606Y+008767
X+023606Y+008767
X+022606Y+008767
X+021606Y+008767
X+020606Y+008767
X+019614Y+008767
X+004299Y+008956
X+005299Y+008956
X+006299Y+008956
X+007299Y+008956
X+008299Y+008956
X+009299Y+008956
X+010299Y+008956
X+011299Y+008956
X+011299Y+011956
X+010299Y+011956
X+009299Y+011956
X+008299Y+011956
X+007299Y+011956
X+006299Y+011956
X+005299Y+011956
X+004299Y+011956
X+004921Y+006377
X+005921Y+006377
X+007322Y+006377
X+008322Y+006377
X+002755Y+007244
X+002755Y+006244
X+003110Y+012858
X+003110Y+013858
X+010393Y+006023
X+010393Y+007023
X+027519Y+004795
X+027519Y+003811
X+028582Y+004763
X+028582Y+003779
X+028929Y+011023
X+027551Y+011023
X+027047Y+002244
X+029047Y+002244
X+019645Y+002637
X+021645Y+002637
X+017244Y+007165
X+017244Y+011165
X+037874Y+006850
X+033874Y+006850
X+037007Y+002125
X+033007Y+002125
X+032874Y+016850
X+036874Y+016850
X+035669Y+015905
X+039669Y+015905
X+008385Y+004133
X+008385Y+001133
X+017834Y+012401
X+013834Y+012401
X+025590Y+014960
X+021590Y+014960
X+034921Y+011417
X+030921Y+011417
X+025551Y+015944
X+021551Y+015944
X+006283Y+016062
X+010283Y+016062
X+016116Y+016167
X+012116Y+016167
X+014960Y+004724
X+014960Y+008724
X+034921Y+010472
X+038921Y+010472
X+038464Y+012519
X+034464Y+012519
T03
X+009807Y+019322
X+019647Y+019322
T04
X+043582Y+019960
X+045536Y+019960
X+023070Y+020000
X+025024Y+020000
X+028188Y+020039
X+030142Y+020039
X+033267Y+020000
X+035221Y+020000
X+045629Y+011466
X+045629Y+009512
X+045629Y+007559
X+002234Y+020000
X+004188Y+020000
X+006141Y+020000
X+038425Y+020000
X+040378Y+020000
T05
X+002401Y+016338
X+002795Y+002047
X+044842Y+016259
X+044921Y+002244
T06
X+042181Y+014133
X+046181Y+014133
X+040417Y+012440
X+041417Y+012440
X+042417Y+012440
X+012834Y+003459
X+012834Y+002559
X+012834Y+001659
X+011344Y+014094
X+012244Y+014094
X+013144Y+014094
X+017525Y+015314
X+018425Y+015314
X+019325Y+015314
M30
